<svg xmlns="http://www.w3.org/2000/svg" xmlns:xlink="http://www.w3.org/1999/xlink" viewBox="0 0 176.94 199.52"><defs><style>.cls-1{fill:url(#linear-gradient);}.cls-2{fill:url(#linear-gradient-2);}.cls-3{fill:url(#linear-gradient-3);}.cls-4{fill:url(#linear-gradient-4);}.cls-5{fill:url(#linear-gradient-5);}.cls-6{fill:url(#linear-gradient-6);}</style><linearGradient id="linear-gradient" x1="31.75" y1="174.49" x2="31.75" y2="72.78" gradientTransform="matrix(0.88, 0.48, -0.46, 0.84, 80.77, 19.56)" gradientUnits="userSpaceOnUse"><stop offset="0" stop-color="#ff1413"/><stop offset="0.13" stop-color="#ee0f0f"/><stop offset="0.39" stop-color="#c10303"/><stop offset="0.45" stop-color="#b60000"/><stop offset="0.54" stop-color="#a10000"/><stop offset="0.65" stop-color="#920000"/><stop offset="0.77" stop-color="#890000"/><stop offset="0.95" stop-color="#860000"/></linearGradient><linearGradient id="linear-gradient-2" x1="-140.09" y1="272.55" x2="-140.09" y2="170.85" gradientTransform="matrix(-0.88, 0.48, 0.46, 0.84, -99.69, 19.56)" xlink:href="#linear-gradient"/><linearGradient id="linear-gradient-3" x1="770.62" y1="690.48" x2="919.95" y2="690.48" gradientTransform="translate(-602.02 919.95) rotate(-90)" gradientUnits="userSpaceOnUse"><stop offset="0" stop-color="#fff67d"/><stop offset="0.07" stop-color="#fdf06c"/><stop offset="0.2" stop-color="#f9e03f"/><stop offset="0.37" stop-color="#f3c900"/><stop offset="0.69" stop-color="#f1c500"/><stop offset="1" stop-color="#cb9800"/></linearGradient><linearGradient id="linear-gradient-4" x1="20.97" y1="74.67" x2="155.97" y2="74.67" gradientUnits="userSpaceOnUse"><stop offset="0" stop-color="#fffab7"/><stop offset="0.08" stop-color="#fdf4a6"/><stop offset="0.24" stop-color="#f8e579"/><stop offset="0.37" stop-color="#f3d751"/><stop offset="0.69" stop-color="#f1c500"/><stop offset="1" stop-color="#cb9800"/></linearGradient><linearGradient id="linear-gradient-5" x1="-1288.04" y1="290.17" x2="-1157.04" y2="290.17" gradientTransform="translate(378.64 1297.19) rotate(90)" xlink:href="#linear-gradient-4"/><linearGradient id="linear-gradient-6" x1="551.67" y1="3239.99" x2="665.59" y2="3239.99" gradientTransform="translate(-3151.49 683.3) rotate(-90)" xlink:href="#linear-gradient-4"/></defs><title>Asset 2</title><g id="Layer_2" data-name="Layer 2"><g id="Objects"><polygon class="cls-1" points="42.84 92.17 0 170.54 37.38 165.13 53.02 199.52 95.85 121.15 42.84 92.17"/><polygon class="cls-2" points="134.1 92.17 176.94 170.54 139.55 165.13 123.92 199.52 81.08 121.15 134.1 92.17"/><path class="cls-3" d="M88.47,0c2.13,0,4.07,4.17,6.16,4.35s4.74-3.58,6.81-3.22,3.28,4.8,5.31,5.35,5.29-2.7,7.27-2,2.38,5.3,4.29,6.19,5.68-1.74,7.5-.69,1.42,5.64,3.15,6.85,5.89-.73,7.51.63.42,5.79,1.92,7.29,5.93.3,7.29,1.91-.59,5.78.63,7.51,5.79,1.31,6.85,3.15-1.58,5.58-.69,7.5,5.47,2.3,6.2,4.29-2.54,5.22-2,7.27,5,3.21,5.35,5.31-3.41,4.69-3.22,6.81,4.35,4,4.35,6.16-4.17,4.07-4.35,6.16,3.58,4.74,3.22,6.81-4.8,3.28-5.35,5.31,2.7,5.29,2,7.27-5.3,2.38-6.2,4.29,1.74,5.68.69,7.5-5.64,1.42-6.85,3.15.73,5.89-.62,7.51-5.79.42-7.29,1.92-.29,5.93-1.92,7.29-5.78-.59-7.51.63-1.31,5.79-3.15,6.85-5.58-1.58-7.5-.69-2.3,5.47-4.29,6.19-5.22-2.53-7.27-2-3.21,5-5.31,5.35-4.69-3.41-6.81-3.22-4,4.35-6.16,4.35-4.07-4.17-6.16-4.35-4.74,3.58-6.81,3.22-3.28-4.8-5.31-5.35-5.29,2.71-7.27,2-2.38-5.3-4.29-6.19-5.68,1.74-7.5.69-1.42-5.64-3.15-6.85-5.89.73-7.51-.63-.42-5.79-1.92-7.29-5.93-.3-7.29-1.91.59-5.78-.63-7.51-5.79-1.32-6.85-3.15,1.58-5.58.69-7.5-5.47-2.3-6.19-4.29,2.53-5.22,2-7.27-5-3.21-5.35-5.31,3.41-4.69,3.22-6.81-4.35-4-4.35-6.16S18,70.6,18.15,68.51s-3.58-4.74-3.22-6.81,4.81-3.28,5.35-5.31-2.71-5.29-2-7.27,5.3-2.38,6.19-4.29-1.74-5.68-.69-7.5,5.64-1.42,6.85-3.15-.73-5.89.63-7.51,5.79-.42,7.29-1.92.3-5.93,1.92-7.29,5.78.59,7.51-.63S49.3,11.05,51.13,10s5.58,1.58,7.5.69,2.3-5.47,4.29-6.19,5.22,2.53,7.27,2,3.21-5,5.31-5.35,4.69,3.41,6.81,3.22S86.34,0,88.47,0Z"/><circle class="cls-4" cx="88.47" cy="74.67" r="67.5"/><circle class="cls-5" cx="88.47" cy="74.67" r="65.5" transform="translate(-26.89 84.43) rotate(-45)"/><circle class="cls-6" cx="88.47" cy="74.67" r="56.96" transform="translate(-26.89 84.43) rotate(-45)"/></g></g></svg>