<svg xmlns="http://www.w3.org/2000/svg" xmlns:xlink="http://www.w3.org/1999/xlink" viewBox="0 0 143.44 161.75"><defs><style>.cls-1{fill:url(#linear-gradient);}.cls-2{fill:url(#linear-gradient-2);}.cls-3{fill:url(#linear-gradient-3);}.cls-4{fill:url(#linear-gradient-4);}.cls-5{fill:url(#linear-gradient-5);}.cls-6{fill:url(#linear-gradient-6);}</style><linearGradient id="linear-gradient" x1="-31.3" y1="288.18" x2="-31.3" y2="205.73" gradientTransform="matrix(0.88, 0.48, -0.46, 0.84, 182.95, -80.12)" gradientUnits="userSpaceOnUse"><stop offset="0" stop-color="#1196d9"/><stop offset="0.11" stop-color="#1485ca"/><stop offset="0.34" stop-color="#1c58a3"/><stop offset="0.45" stop-color="#213f8d"/><stop offset="0.53" stop-color="#232d8b"/><stop offset="0.64" stop-color="#251e89"/><stop offset="0.77" stop-color="#261587"/><stop offset="0.95" stop-color="#261287"/></linearGradient><linearGradient id="linear-gradient-2" x1="280.34" y1="110.34" x2="280.34" y2="27.89" gradientTransform="matrix(-0.88, 0.48, 0.46, 0.84, 315.67, -80.12)" xlink:href="#linear-gradient"/><linearGradient id="linear-gradient-3" x1="1211.04" y1="568.35" x2="1332.1" y2="568.35" gradientTransform="translate(-496.63 1332.1) rotate(-90)" gradientUnits="userSpaceOnUse"><stop offset="0" stop-color="#e7e7e7"/><stop offset="0.17" stop-color="#d6d6d6"/><stop offset="0.37" stop-color="#bbb"/><stop offset="0.69" stop-color="#b9b9b9"/><stop offset="1" stop-color="#939393"/></linearGradient><linearGradient id="linear-gradient-4" x1="17" y1="60.53" x2="126.44" y2="60.53" gradientUnits="userSpaceOnUse"><stop offset="0" stop-color="#f0f0f0"/><stop offset="0.2" stop-color="#dfdfdf"/><stop offset="0.37" stop-color="#cdcdcd"/><stop offset="0.69" stop-color="#b9b9b9"/><stop offset="1" stop-color="#939393"/></linearGradient><linearGradient id="linear-gradient-5" x1="-1330.15" y1="519.92" x2="-1223.94" y2="519.92" gradientTransform="translate(591.64 1337.56) rotate(90)" xlink:href="#linear-gradient-4"/><linearGradient id="linear-gradient-6" x1="1134.49" y1="3317" x2="1226.85" y2="3317" gradientTransform="translate(-3245.25 1241.2) rotate(-90)" xlink:href="#linear-gradient-4"/></defs><title>Asset 1</title><g id="Layer_2" data-name="Layer 2"><g id="Objects"><polygon class="cls-1" points="34.73 74.72 0 138.25 30.31 133.87 42.98 161.75 77.71 98.22 34.73 74.72"/><polygon class="cls-2" points="108.71 74.72 143.44 138.25 113.13 133.87 100.46 161.75 65.73 98.22 108.71 74.72"/><path class="cls-3" d="M71.72,0c1.73,0,3.3,3.38,5,3.52S80.56.62,82.23.91s2.66,3.89,4.31,4.33,4.29-2.19,5.89-1.61,1.93,4.3,3.48,5,4.61-1.41,6.08-.56,1.15,4.57,2.55,5.55,4.78-.59,6.09.51.34,4.7,1.55,5.91,4.8.24,5.91,1.55-.48,4.68.51,6.09,4.69,1.07,5.55,2.55-1.29,4.53-.56,6.08,4.44,1.86,5,3.48-2.05,4.23-1.61,5.89,4,2.6,4.33,4.3-2.76,3.8-2.61,5.52,3.52,3.26,3.52,5-3.38,3.3-3.52,5,2.91,3.85,2.61,5.52-3.89,2.66-4.33,4.3,2.19,4.29,1.61,5.89-4.3,1.93-5,3.48,1.41,4.6.56,6.08-4.57,1.15-5.55,2.55.59,4.78-.51,6.09-4.7.34-5.91,1.55-.24,4.81-1.55,5.91-4.68-.48-6.09.51S103.48,112.1,102,113s-4.53-1.28-6.08-.56-1.86,4.43-3.48,5-4.23-2.05-5.89-1.61-2.6,4-4.3,4.34-3.8-2.76-5.52-2.61-3.26,3.52-5,3.52-3.3-3.38-5-3.52-3.85,2.91-5.52,2.61-2.66-3.9-4.3-4.34S52.61,118,51,117.43s-1.93-4.3-3.48-5-4.6,1.41-6.08.56-1.15-4.57-2.55-5.55-4.78.59-6.09-.51-.34-4.7-1.55-5.91-4.8-.24-5.91-1.55.48-4.68-.51-6.09-4.69-1.07-5.55-2.55,1.28-4.53.56-6.08-4.43-1.86-5-3.48,2.05-4.23,1.61-5.89-4-2.61-4.34-4.3,2.76-3.8,2.61-5.52-3.52-3.26-3.52-5,3.38-3.3,3.52-5S11.81,51.69,12.1,50s3.9-2.66,4.34-4.3-2.19-4.29-1.61-5.89,4.3-1.93,5-3.48-1.41-4.61-.56-6.08,4.57-1.15,5.55-2.55-.59-4.78.51-6.09,4.7-.34,5.91-1.55.24-4.8,1.55-5.91,4.68.48,6.09-.51S40,9,41.45,8.1s4.53,1.28,6.08.56,1.86-4.43,3.48-5,4.23,2.05,5.89,1.61,2.6-4,4.3-4.34S65,3.67,66.73,3.52,70,0,71.72,0Z"/><circle class="cls-4" cx="71.72" cy="60.53" r="54.72"/><circle class="cls-5" cx="71.72" cy="60.53" r="53.1" transform="translate(-21.8 68.44) rotate(-45)"/><circle class="cls-6" cx="71.72" cy="60.53" r="46.18" transform="translate(-21.8 68.44) rotate(-45)"/></g></g></svg>